<svg id="Capa_1" enable-background="new 0 0 512 512" height="512" viewBox="0 0 512 512" width="512" xmlns="http://www.w3.org/2000/svg"><g><g><g><circle cx="486.245" cy="256" fill="#fe99a0" r="25.755"/><path d="m495.342 231.903c1.069 2.829 1.658 5.894 1.658 9.097 0 14.224-11.531 25.754-25.754 25.754-3.203 0-6.268-.589-9.097-1.658 3.677 9.733 13.076 16.658 24.097 16.658 14.223 0 25.754-11.53 25.754-25.754 0-11.021-6.924-20.42-16.658-24.097z" fill="#fd8087"/><circle cx="25.755" cy="256" fill="#fe99a0" r="25.755"/></g><g><circle cx="256" cy="25.755" fill="#7acaa6" r="25.755"/><path d="m265.097 1.658c1.068 2.829 1.658 5.893 1.658 9.096 0 14.224-11.531 25.755-25.754 25.755-3.203 0-6.268-.589-9.097-1.658 3.677 9.734 13.076 16.658 24.097 16.658 14.224 0 25.754-11.531 25.754-25.755-.001-11.02-6.925-20.42-16.658-24.096z" fill="#57be92"/><circle cx="256" cy="486.245" fill="#7acaa6" r="25.755"/><path d="m265.097 462.149c1.068 2.829 1.658 5.893 1.658 9.097-.001 14.223-11.531 25.754-25.755 25.754-3.203 0-6.268-.589-9.097-1.658 3.677 9.734 13.076 16.658 24.097 16.658 14.224 0 25.754-11.531 25.754-25.754 0-11.021-6.924-20.421-16.657-24.097z" fill="#57be92"/></g><g><circle cx="418.808" cy="93.192" fill="#8795de" r="25.755"/><path d="m437.02 74.981c-2.675-2.675-5.794-4.631-9.117-5.883 3.456 9.174 1.5 19.922-5.883 27.305s-18.131 9.339-27.306 5.883c1.252 3.323 3.208 6.442 5.883 9.117 10.058 10.058 26.365 10.058 36.423 0 10.057-10.058 10.057-26.365 0-36.422z" fill="#6c7fd8"/><circle cx="93.192" cy="418.808" fill="#8795de" r="25.755"/></g><g><circle cx="93.192" cy="93.192" fill="#fee97d" r="25.755"/><circle cx="418.808" cy="418.808" fill="#fee97d" r="25.755"/><path d="m437.02 400.597c-2.675-2.675-5.794-4.631-9.117-5.883 3.456 9.174 1.5 19.922-5.883 27.305s-18.131 9.339-27.306 5.883c1.252 3.323 3.208 6.442 5.883 9.117 10.058 10.058 26.365 10.058 36.423 0 10.057-10.058 10.057-26.364 0-36.422z" fill="#fedf30"/></g><g><g><path d="m256 124.188c-4.268 0-7.726-3.459-7.726-7.726v-35.078c0-4.267 3.459-7.726 7.726-7.726s7.726 3.459 7.726 7.726v35.077c0 4.268-3.458 7.727-7.726 7.727z" fill="#d7d0d6"/></g><g><path d="m256 438.342c-4.268 0-7.726-3.459-7.726-7.726v-35.077c0-4.268 3.459-7.726 7.726-7.726s7.726 3.459 7.726 7.726v35.077c0 4.267-3.458 7.726-7.726 7.726z" fill="#d7d0d6"/></g><g><path d="m430.616 263.726h-35.077c-4.268 0-7.726-3.459-7.726-7.726s3.459-7.726 7.726-7.726h35.077c4.268 0 7.726 3.459 7.726 7.726 0 4.268-3.459 7.726-7.726 7.726z" fill="#d7d0d6"/></g><g><path d="m116.462 263.726h-35.078c-4.268 0-7.726-3.459-7.726-7.726s3.459-7.726 7.726-7.726h35.077c4.268 0 7.726 3.459 7.726 7.726.001 4.268-3.458 7.726-7.725 7.726z" fill="#d7d0d6"/></g></g><g><g><path d="m157.329 165.056c-1.978 0-3.955-.754-5.464-2.263l-24.796-24.797c-3.017-3.018-3.017-7.909.001-10.927 3.017-3.018 7.909-3.018 10.927 0l24.796 24.797c3.017 3.018 3.017 7.909-.001 10.927-1.508 1.508-3.486 2.263-5.463 2.263z" fill="#d7d0d6"/></g><g><path d="m379.467 387.193c-1.977 0-3.955-.755-5.464-2.263l-24.796-24.796c-3.017-3.018-3.017-7.909 0-10.928 3.018-3.016 7.909-3.016 10.928 0l24.796 24.796c3.017 3.018 3.017 7.909 0 10.928-1.509 1.509-3.487 2.263-5.464 2.263z" fill="#d7d0d6"/></g><g><path d="m354.671 165.056c-1.977 0-3.955-.754-5.463-2.263-3.018-3.017-3.018-7.909-.001-10.927l24.796-24.797c3.018-3.017 7.91-3.018 10.927 0 3.018 3.017 3.018 7.909.001 10.927l-24.796 24.797c-1.509 1.508-3.487 2.263-5.464 2.263z" fill="#d7d0d6"/></g><g><path d="m132.533 387.193c-1.977 0-3.955-.755-5.464-2.263-3.017-3.018-3.017-7.909 0-10.928l24.796-24.796c3.018-3.016 7.909-3.016 10.928 0 3.017 3.018 3.017 7.909 0 10.928l-24.796 24.796c-1.509 1.509-3.487 2.263-5.464 2.263z" fill="#d7d0d6"/></g></g><g><g><path d="m256 403.262c-81.2 0-147.262-66.061-147.262-147.262s66.062-147.261 147.262-147.261 147.262 66.061 147.262 147.261-66.062 147.262-147.262 147.262zm0-279.07c-72.68 0-131.809 59.129-131.809 131.808 0 72.68 59.129 131.809 131.809 131.809s131.809-59.129 131.809-131.809-59.129-131.808-131.809-131.808z" fill="#b5adb6"/></g></g><g><path d="m343.443 319.812c-11.852 19.224-34.579 28.905-56.623 23.994-24.778-5.52-51.719-20.54-74.901-43.722-23.185-23.185-38.205-50.127-43.724-74.906-4.911-22.044 4.77-44.77 23.994-56.623 4.309-2.657 9.88-2.005 13.46 1.574l26.588 26.588c4.988 4.988 4.012 13.324-1.992 17.026l-10.864 6.698c-4.56 2.811-6.416 8.512-4.369 13.462 4.442 10.743 12.468 25.611 26.834 39.432 12.85 12.363 26.243 19.531 36.295 23.677 4.935 2.035 10.618.158 13.419-4.386l6.701-10.869c3.702-6.004 12.038-6.979 17.026-1.992l26.584 26.584c3.58 3.58 4.231 9.15 1.575 13.459z" fill="#b5adb6"/></g><g fill="#aa9ea9"><path d="m177.189 183.555c4.31-2.657 9.879-2.005 13.459 1.574l26.588 26.588c2.256 2.256 3.28 5.196 3.183 8.083l9.825-6.058c6.004-3.702 6.979-12.038 1.992-17.026l-26.588-26.588c-3.58-3.58-9.15-4.231-13.459-1.574-6.722 4.144-12.272 9.621-16.444 15.93.476-.314.955-.627 1.444-.929z"/><path d="m341.869 306.351-26.583-26.584c-4.988-4.988-13.324-4.012-17.026 1.992l-6.058 9.825c2.887-.097 5.828.927 8.083 3.183l26.583 26.584c3.58 3.58 4.231 9.15 1.575 13.459l-.001.001c-.301.489-.615.968-.93 1.445 6.309-4.173 11.786-9.723 15.93-16.445l.001-.001c2.658-4.309 2.006-9.879-1.574-13.459z"/></g></g><g fill="#b5adb6"><circle cx="273.313" cy="200.666" r="7.726"/><circle cx="295.166" cy="222.519" r="7.726"/><circle cx="317.019" cy="244.373" r="7.726"/></g></g></svg>